<?xml version="1.0" encoding="utf-8"?>
<!-- Generated by IcoMoon.io -->
<!DOCTYPE svg PUBLIC "-//W3C//DTD SVG 1.1//EN" "http://www.w3.org/Graphics/SVG/1.1/DTD/svg11.dtd">
<svg version="1.1" xmlns="http://www.w3.org/2000/svg" xmlns:xlink="http://www.w3.org/1999/xlink" width="32" height="32" viewBox="0 0 32 32">
<g>
	<line stroke-width="1" x1="" y1="" x2="" y2="" stroke="#449FDB" opacity=""></line>
</g>
	<path d="M24 23.8c-0.1 0-0.3 0-0.4-0.1-0.2-0.1-0.3-0.2-0.4-0.3l-4.6-4.6-4.7 4.7c-0.4 0.4-1.1 0.4-1.5 0l-4.7-4.7-4.5 4.5c-0.4 0.4-1.1 0.4-1.5 0s-0.4-1.1 0-1.5l5.3-5.2c0.4-0.4 1.1-0.4 1.5 0l4.7 4.7 4.7-4.7c0.4-0.4 1.1-0.4 1.5 0l4.7 4.7 4.7-4.7c0.4-0.4 1.1-0.4 1.5 0s0.4 1.1 0 1.5l-5.4 5.4c-0.3 0.2-0.6 0.3-0.9 0.3z" fill="#000000"></path>
	<path d="M24 32c-0.1 0-0.3 0-0.4-0.1-0.2-0.1-0.3-0.2-0.4-0.3l-4.6-4.6-4.7 4.7c-0.4 0.4-1.1 0.4-1.5 0l-4.6-4.7-4.5 4.5c-0.4 0.4-1.1 0.4-1.5 0s-0.4-1.1 0-1.5l5.2-5.2c0.4-0.4 1.1-0.4 1.5 0l4.7 4.7 4.7-4.7c0.4-0.4 1.1-0.4 1.5 0l4.7 4.7 4.7-4.7c0.4-0.4 1.1-0.4 1.5 0s0.4 1.1 0 1.5l-5.4 5.4c-0.3 0.2-0.6 0.3-0.9 0.3z" fill="#000000"></path>
</svg>
