<?xml version="1.0" encoding="utf-8"?>
<!-- Generated by IcoMoon.io -->
<!DOCTYPE svg PUBLIC "-//W3C//DTD SVG 1.1//EN" "http://www.w3.org/Graphics/SVG/1.1/DTD/svg11.dtd">
<svg version="1.1" xmlns="http://www.w3.org/2000/svg" xmlns:xlink="http://www.w3.org/1999/xlink" width="32" height="32" viewBox="0 0 32 32">
<g>
	<line stroke-width="1" x1="" y1="" x2="" y2="" stroke="#449FDB" opacity=""></line>
</g>
	<path d="M22.5 8.1c-2.8 0-5.2 1.5-6.5 3.7-1.3-2.2-3.7-3.7-6.5-3.7-4.1 0-7.5 3.4-7.5 7.5 0 1.5 0.4 3 1.3 4.2 0.2 0.3 0.5 0.5 0.9 0.5 0.2 0 0.4-0.1 0.6-0.2 0.5-0.3 0.6-1 0.3-1.5-0.6-0.9-0.9-1.9-0.9-3 0-3 2.4-5.4 5.4-5.4s5.4 2.4 5.4 5.4c0 0.1 0 0.3 0.1 0.4v15c0 0.6 0.5 1 1 1 0.6 0 1.1-0.5 1.1-1v-15.4c0-3 2.4-5.4 5.4-5.4s5.4 2.4 5.4 5.4c0 1.1-0.3 2.1-0.9 3-0.3 0.5-0.2 1.1 0.3 1.5 0.2 0.1 0.4 0.2 0.6 0.2 0.3 0 0.7-0.2 0.9-0.5 0.8-1.2 1.3-2.7 1.3-4.2-0.2-4.1-3.6-7.5-7.7-7.5z" fill="#000000"></path>
</svg>
