<?xml version="1.0" encoding="utf-8"?>
<!-- Generated by IcoMoon.io -->
<!DOCTYPE svg PUBLIC "-//W3C//DTD SVG 1.1//EN" "http://www.w3.org/Graphics/SVG/1.1/DTD/svg11.dtd">
<svg version="1.1" xmlns="http://www.w3.org/2000/svg" xmlns:xlink="http://www.w3.org/1999/xlink" width="32" height="32" viewBox="0 0 32 32">
<g>
	<line stroke-width="1" x1="" y1="" x2="" y2="" stroke="#449FDB" opacity=""></line>
</g>
	<path d="M30.9 29.9h-29.8c-0.6 0-1.1 0.5-1.1 1.1 0 0.5 0.5 1 1.1 1h29.9c0.6 0 1.1-0.5 1.1-1.1-0.1-0.5-0.6-1-1.2-1z" fill="#000000"></path>
	<path d="M1.1 25.6h4.6c0 0 0 0 0 0h4.3c0.3 0 0.7-0.2 0.9-0.5s0.2-0.7 0.1-1c-0.2-0.6-0.4-1.3-0.4-2 0-3 2.4-5.4 5.4-5.4s5.4 2.4 5.4 5.4c0 0.6-0.1 1.3-0.3 1.9 0 0.1-0.1 0.2-0.1 0.4v0.1c0 0.6 0.5 1.1 1.1 1.1h8.8c0.6 0 1.1-0.5 1.1-1.1s-0.5-1.1-1.1-1.1h-7.5c0.1-0.4 0.1-0.9 0.1-1.3 0-4.2-3.4-7.6-7.6-7.6s-7.6 3.4-7.6 7.6c0 0.4 0 0.9 0.1 1.3h-7.3c-0.6 0-1.1 0.5-1.1 1.1s0.5 1.1 1.1 1.1z" fill="#000000"></path>
</svg>
