<?xml version="1.0" encoding="utf-8"?>
<!-- Generated by IcoMoon.io -->
<!DOCTYPE svg PUBLIC "-//W3C//DTD SVG 1.1//EN" "http://www.w3.org/Graphics/SVG/1.1/DTD/svg11.dtd">
<svg version="1.1" xmlns="http://www.w3.org/2000/svg" xmlns:xlink="http://www.w3.org/1999/xlink" width="32" height="32" viewBox="0 0 32 32">
<g>
	<line stroke-width="1" x1="" y1="" x2="" y2="" stroke="#449FDB" opacity=""></line>
</g>
	<path d="M25.2 26.3c0 0 0 0 0 0 0.2-0.5 0.4-1.1 0.4-1.7 0-2.1-1.7-3.9-3.9-3.9-2.1 0-3.9 1.7-3.9 3.9 0 1.8 1.2 3.3 2.9 3.8-1.4 1-3 1.5-4.8 1.5-3.1 0-6-1.7-7.4-4.5-0.3-0.5-1-0.7-1.5-0.4s-0.7 0.9-0.4 1.4c1.8 3.5 5.4 5.6 9.3 5.6 3.8 0 7.2-2 9.1-5.2 0-0.2 0.1-0.3 0.2-0.5 0 0 0 0 0 0zM19.9 24.6c0-1 0.8-1.8 1.8-1.8s1.8 0.8 1.8 1.8c0 0.3-0.1 0.5-0.2 0.7-0.1 0.1-0.1 0.2-0.2 0.3-0.3 0.5-0.9 0.8-1.5 0.8-0.9 0-1.7-0.8-1.7-1.8z" fill="#000000"></path>
	<path d="M10.3 22.8c2.1 0 3.9-1.7 3.9-3.9 0-1.8-1.2-3.3-2.9-3.8 1.4-1 3-1.5 4.8-1.5 3.1 0 6 1.7 7.4 4.5 0.3 0.5 0.9 0.7 1.4 0.4s0.7-0.9 0.4-1.4c-1.8-3.5-5.4-5.6-9.3-5.6-3.8 0-7.2 2-9.1 5.2-0.1 0.1-0.2 0.3-0.2 0.4 0 0 0 0 0 0s0 0 0 0c-0.2 0.5-0.4 1.1-0.4 1.7 0.2 2.2 1.9 4 4 4zM12.1 18.9c0 1-0.8 1.8-1.8 1.8s-1.8-0.8-1.8-1.8c0-0.3 0.1-0.5 0.2-0.7 0.1-0.1 0.1-0.2 0.2-0.3 0.3-0.5 0.9-0.8 1.5-0.8 0.9 0 1.7 0.8 1.7 1.8z" fill="#000000"></path>
</svg>
