<?xml version="1.0" encoding="utf-8"?>
<!-- Generated by IcoMoon.io -->
<!DOCTYPE svg PUBLIC "-//W3C//DTD SVG 1.1//EN" "http://www.w3.org/Graphics/SVG/1.1/DTD/svg11.dtd">
<svg version="1.1" xmlns="http://www.w3.org/2000/svg" xmlns:xlink="http://www.w3.org/1999/xlink" width="32" height="32" viewBox="0 0 32 32">
<g>
	<line stroke-width="1" x1="" y1="" x2="" y2="" stroke="#449FDB" opacity=""></line>
</g>
	<path d="M24.9 19.6l-0.3-0.4c-1.3-1.8-3.1-3-5-3.7l6.4-6.6c0.4-0.4 0.4-1.1 0-1.5-0.2-0.2-0.5-0.3-0.8-0.3 0 0-0.1 0-0.1 0h-13c-0.6 0-1 0.5-1 1 0 0.6 0.5 1.1 1 1.1h10.6l-5.7 5.8c-2.5-0.2-5 0.4-7.1 2-4.6 3.4-5.7 10-2.2 14.6 0.2 0.3 0.5 0.4 0.8 0.4 0.2 0 0.4-0.1 0.6-0.2 0.5-0.3 0.6-1 0.2-1.5-2.7-3.7-1.9-9 1.8-11.7 1.1-0.8 2.4-1.3 3.8-1.5l-1.5 1.5c-0.1 0.1-0.1 0.2-0.2 0.2-1.2 1.3-2 3.1-2 5 0 4.1 3.4 7.5 7.5 7.5s7.5-3.4 7.5-7.5c0-1.5-0.5-3-1.3-4.2 0 0.1 0 0.1 0 0zM18.7 29.3c-3 0-5.4-2.4-5.4-5.4s2.4-5.4 5.4-5.4 5.4 2.4 5.4 5.4c0 3-2.4 5.4-5.4 5.4z" fill="#000000"></path>
</svg>
