<?xml version="1.0" encoding="utf-8"?>
<!-- Generated by IcoMoon.io -->
<!DOCTYPE svg PUBLIC "-//W3C//DTD SVG 1.1//EN" "http://www.w3.org/Graphics/SVG/1.1/DTD/svg11.dtd">
<svg version="1.1" xmlns="http://www.w3.org/2000/svg" xmlns:xlink="http://www.w3.org/1999/xlink" width="32" height="32" viewBox="0 0 32 32">
<g>
	<line stroke-width="1" x1="" y1="" x2="" y2="" stroke="#449FDB" opacity=""></line>
</g>
	<path d="M19.7 27.3v-14.7c1.7-0.6 3.2-1.6 4.2-3 0.4-0.5 0.3-1.1-0.2-1.5s-1.1-0.3-1.5 0.2c-1.4 1.8-3.7 2.8-6.2 2.8s-4.8-1.1-6.2-2.8c-0.4-0.5-1-0.5-1.5-0.2-0.5 0.4-0.5 1-0.2 1.5 1.1 1.4 2.5 2.4 4.2 3v14.7c-1.7 0.6-3.2 1.6-4.2 3-0.4 0.5-0.3 1.1 0.2 1.5 0.2 0.1 0.4 0.2 0.6 0.2 0.3 0 0.6-0.1 0.8-0.4 1.4-1.8 3.7-2.8 6.2-2.8s4.8 1.1 6.2 2.8c0.4 0.5 1 0.5 1.5 0.2 0.5-0.4 0.5-1 0.2-1.5-1-1.4-2.5-2.4-4.1-3zM14.4 26.8v-13.7c0.5 0.1 1 0.1 1.6 0.1 0.5 0 1-0.1 1.6-0.1v13.6c-0.5-0.1-1-0.1-1.6-0.1s-1 0.1-1.6 0.2z" fill="#000000"></path>
</svg>
