<?xml version="1.0" encoding="utf-8"?>
<!-- Generated by IcoMoon.io -->
<!DOCTYPE svg PUBLIC "-//W3C//DTD SVG 1.1//EN" "http://www.w3.org/Graphics/SVG/1.1/DTD/svg11.dtd">
<svg version="1.1" xmlns="http://www.w3.org/2000/svg" xmlns:xlink="http://www.w3.org/1999/xlink" width="32" height="32" viewBox="0 0 32 32">
<g>
	<line stroke-width="1" x1="" y1="" x2="" y2="" stroke="#449FDB" opacity=""></line>
</g>
	<path d="M25.156 19.022h-4v-15.289c0-0.8-0.711-1.511-1.511-1.511s-1.511 0.622-1.511 1.511v15.2h-8c1.6-2.222 2.578-5.067 2.578-8.089 0-4.178-1.867-8.178-4.889-10.578-0.711-0.444-1.6-0.356-2.133 0.267-0.533 0.711-0.356 1.6 0.267 2.133 2.311 1.867 3.733 4.889 3.733 8.267 0 3.289-1.422 6.4-3.733 8.267-0.356 0.267-0.533 0.711-0.533 1.156 0 0.089 0 0.089 0 0.178 0 0.8 0.711 1.511 1.511 1.511h11.289v8.533c0 0.8 0.622 1.511 1.511 1.511 0.8 0 1.511-0.711 1.511-1.511v-8.533h4c0.8 0 1.511-0.622 1.511-1.511-0.178-0.889-0.8-1.511-1.6-1.511z" fill="#000000"></path>
</svg>
