<?xml version="1.0" encoding="utf-8"?>
<!-- Generated by IcoMoon.io -->
<!DOCTYPE svg PUBLIC "-//W3C//DTD SVG 1.1//EN" "http://www.w3.org/Graphics/SVG/1.1/DTD/svg11.dtd">
<svg version="1.1" xmlns="http://www.w3.org/2000/svg" xmlns:xlink="http://www.w3.org/1999/xlink" width="32" height="32" viewBox="0 0 32 32">
<g>
	<line stroke-width="1" x1="" y1="" x2="" y2="" stroke="#449FDB" opacity=""></line>
</g>
	<path d="M16 0c-8.8 0-16 7.2-16 16s7.2 16 16 16c8.8 0 16-7.2 16-16s-7.2-16-16-16zM12.267 21.422h-2.4v-10.844h2.4v10.844zM22.667 20.533c-0.267 0.267-0.622 0.444-0.978 0.622s-0.711 0.267-1.156 0.356c-0.444 0.089-0.889 0.089-1.422 0.089-0.8 0-1.511-0.178-2.222-0.444s-1.244-0.711-1.778-1.156c-0.533-0.533-0.889-1.067-1.156-1.778s-0.444-1.422-0.444-2.222v0c0-0.8 0.178-1.511 0.444-2.133 0.267-0.711 0.711-1.244 1.156-1.778 0.533-0.533 1.067-0.889 1.778-1.244 0.711-0.267 1.422-0.444 2.311-0.444 0.533 0 0.978 0 1.422 0.089s0.8 0.178 1.156 0.356c0.356 0.178 0.622 0.356 0.978 0.533 0.267 0.178 0.533 0.444 0.8 0.711l-1.511 1.778c-0.444-0.356-0.889-0.711-1.333-0.889s-0.978-0.356-1.511-0.356c-0.444 0-0.889 0.089-1.244 0.267s-0.711 0.444-0.978 0.711c-0.267 0.267-0.533 0.711-0.622 1.067-0.267 0.444-0.356 0.889-0.356 1.333v0c0 0.444 0.089 0.889 0.267 1.333s0.356 0.8 0.622 1.067c0.267 0.267 0.622 0.533 0.978 0.711s0.8 0.267 1.244 0.267c0.622 0 1.156-0.089 1.6-0.356s0.889-0.533 1.244-0.889l1.511 1.511c-0.178 0.356-0.444 0.622-0.8 0.889z" fill="#000000"></path>
</svg>
