<?xml version="1.0" encoding="utf-8"?>
<!-- Generated by IcoMoon.io -->
<!DOCTYPE svg PUBLIC "-//W3C//DTD SVG 1.1//EN" "http://www.w3.org/Graphics/SVG/1.1/DTD/svg11.dtd">
<svg version="1.1" xmlns="http://www.w3.org/2000/svg" xmlns:xlink="http://www.w3.org/1999/xlink" width="32" height="32" viewBox="0 0 32 32">
<g>
	<line stroke-width="1" x1="" y1="" x2="" y2="" stroke="#449FDB" opacity=""></line>
</g>
	<path d="M20.6 26.9c0.2-0.1 0.4-0.2 0.6-0.3 0.4-0.2 0.8-0.4 1.1-0.6 0.6-0.4 1.1-0.8 1.5-1.2 1-1 1.6-2.2 2-3.4 0.2-0.8 0.3-1.5 0.3-2.3 0-4.5-3.7-8.2-8.2-8.2s-8.2 3.7-8.2 8.2c0 0.4 0 0.8 0.1 1.1-0.1 0-0.2 0-0.4 0-2 0-3.7 1.6-3.7 3.7 0 2 1.6 3.7 3.7 3.7 2 0 3.7-1.6 3.7-3.7 0-0.8-0.3-1.5-0.7-2.1-0.4-0.8-0.6-1.7-0.6-2.6 0-3.4 2.7-6.1 6.1-6.1 3.3 0 6.1 2.7 6.1 6.1 0 0.5-0.1 1.1-0.2 1.7-0.2 0.9-0.7 1.7-1.5 2.5-0.3 0.3-0.7 0.6-1.1 0.9-0.3 0.2-0.6 0.3-0.9 0.5-0.2 0.1-0.4 0.2-0.6 0.3-1.2 0.6-2 1.9-2 3.2 0 2 1.6 3.7 3.7 3.7 2 0 3.7-1.6 3.7-3.7 0-0.6-0.5-1-1-1-0.6 0-1.1 0.5-1.1 1 0 0.9-0.7 1.6-1.6 1.6s-1.6-0.7-1.6-1.6c0-0.7 0.5-1.2 0.8-1.4zM9.5 25.5c-0.9 0-1.6-0.7-1.6-1.6s0.7-1.6 1.6-1.6 1.6 0.7 1.6 1.6c0 0.9-0.7 1.6-1.6 1.6z" fill="#000000"></path>
</svg>
