<?xml version="1.0" encoding="utf-8"?>
<!-- Generated by IcoMoon.io -->
<!DOCTYPE svg PUBLIC "-//W3C//DTD SVG 1.1//EN" "http://www.w3.org/Graphics/SVG/1.1/DTD/svg11.dtd">
<svg version="1.1" xmlns="http://www.w3.org/2000/svg" xmlns:xlink="http://www.w3.org/1999/xlink" width="32" height="32" viewBox="0 0 32 32">
<g>
	<line stroke-width="1" x1="" y1="" x2="" y2="" stroke="#449FDB" opacity=""></line>
</g>
	<path d="M25.867 28.178c-5.333-1.689-8.978-6.578-8.978-12.178 0-5.422 3.644-10.489 8.889-12.267 0.622-0.178 1.156-0.889 1.067-1.511 0-0.711-0.444-1.333-1.156-1.511-1.511-0.444-3.111-0.711-4.711-0.711-8.8 0-16 7.2-16 16s7.2 16 16 16c1.689 0 3.289-0.267 4.889-0.8 0.711-0.178 1.156-0.8 1.156-1.511s-0.444-1.333-1.156-1.511zM8.178 16c0-6.756 5.244-12.267 11.822-12.711-3.911 3.022-6.311 7.733-6.311 12.711 0 5.156 2.4 9.778 6.311 12.711-6.578-0.444-11.822-5.956-11.822-12.711z" fill="#000000"></path>
</svg>
