<?xml version="1.0" encoding="utf-8"?>
<!-- Generated by IcoMoon.io -->
<!DOCTYPE svg PUBLIC "-//W3C//DTD SVG 1.1//EN" "http://www.w3.org/Graphics/SVG/1.1/DTD/svg11.dtd">
<svg version="1.1" xmlns="http://www.w3.org/2000/svg" xmlns:xlink="http://www.w3.org/1999/xlink" width="32" height="32" viewBox="0 0 32 32">
<g>
	<line stroke-width="1" x1="" y1="" x2="" y2="" stroke="#449FDB" opacity=""></line>
</g>
	<path d="M30.311 0h-8.533c-0.889 0-1.6 0.711-1.6 1.6s0.711 1.6 1.6 1.6h4.711l-7.822 7.822c-2.044-1.511-4.444-2.311-6.933-2.311-3.111 0-6.044 1.244-8.178 3.378-4.533 4.533-4.533 11.911 0 16.444 2.222 2.222 5.156 3.378 8.178 3.378s6.044-1.244 8.178-3.378c2.222-2.222 3.378-5.156 3.378-8.178 0-2.578-0.8-4.978-2.311-6.933l7.822-7.822v4.711c0 0.889 0.711 1.6 1.6 1.6s1.6-0.711 1.6-1.6v-8.711c0-0.889-0.711-1.6-1.689-1.6zM17.6 26.311c-1.6 1.6-3.644 2.489-5.956 2.489s-4.356-0.889-5.956-2.489c-3.289-3.289-3.289-8.533 0-11.822 1.6-1.6 3.644-2.489 5.956-2.489s4.356 0.889 5.956 2.489c1.6 1.6 2.489 3.644 2.489 5.867-0.089 2.222-0.978 4.356-2.489 5.956z" fill="#000000"></path>
</svg>
