<?xml version="1.0" encoding="utf-8"?>
<!-- Generated by IcoMoon.io -->
<!DOCTYPE svg PUBLIC "-//W3C//DTD SVG 1.1//EN" "http://www.w3.org/Graphics/SVG/1.1/DTD/svg11.dtd">
<svg version="1.1" xmlns="http://www.w3.org/2000/svg" xmlns:xlink="http://www.w3.org/1999/xlink" width="32" height="32" viewBox="0 0 32 32">
<g>
	<line stroke-width="1" x1="" y1="" x2="" y2="" stroke="#449FDB" opacity=""></line>
</g>
	<path d="M24.711 12.8c0-3.2-1.689-5.956-4.267-7.556 1.422-0.8 2.578-2.044 3.289-3.556 0.356-0.622 0.089-1.333-0.533-1.689s-1.333-0.089-1.689 0.533c-1.067 2.133-3.2 3.378-5.6 3.378s-4.533-1.333-5.6-3.378c-0.356-0.622-1.067-0.8-1.689-0.533-0.444 0.444-0.711 1.244-0.356 1.867 0.8 1.511 1.956 2.667 3.289 3.467-2.578 1.511-4.267 4.356-4.267 7.556 0 4.444 3.289 8.089 7.556 8.622v3.733h-2.133c-0.711 0-1.244 0.533-1.244 1.244s0.533 1.244 1.244 1.244h2.133v3.111c0 0.711 0.533 1.244 1.244 1.244s1.244-0.533 1.244-1.244v-3.111h2.4c0.711 0 1.244-0.533 1.244-1.244s-0.533-1.244-1.244-1.244h-2.4v-3.733c4.178-0.622 7.378-4.267 7.378-8.711zM9.689 12.8c0-3.467 2.844-6.311 6.311-6.311s6.311 2.844 6.311 6.311-2.844 6.311-6.311 6.311c-3.467 0-6.311-2.844-6.311-6.311z" fill="#000000"></path>
</svg>
