<?xml version="1.0" encoding="utf-8"?>
<!-- Generated by IcoMoon.io -->
<!DOCTYPE svg PUBLIC "-//W3C//DTD SVG 1.1//EN" "http://www.w3.org/Graphics/SVG/1.1/DTD/svg11.dtd">
<svg version="1.1" xmlns="http://www.w3.org/2000/svg" xmlns:xlink="http://www.w3.org/1999/xlink" width="32" height="32" viewBox="0 0 32 32">
<g>
	<line stroke-width="1" x1="" y1="" x2="" y2="" stroke="#449FDB" opacity=""></line>
</g>
	<path d="M24.622 0c-0.8 0-1.422 0.622-1.422 1.422v5.6c0 3.467-2.489 6.4-5.778 7.111v-9.333c0-0.8-0.622-1.422-1.422-1.422s-1.422 0.622-1.422 1.422v9.244c-3.289-0.622-5.778-3.556-5.778-7.111v-5.511c0-0.8-0.622-1.422-1.422-1.422s-1.422 0.622-1.422 1.422v5.6c0 5.067 3.733 9.244 8.622 9.956v7.378h-2.578c-0.8 0-1.422 0.622-1.422 1.422s0.622 1.422 1.422 1.422h2.578v3.556c0 0.8 0.622 1.422 1.422 1.422s1.422-0.622 1.422-1.422v-3.556h2.578c0.8 0 1.422-0.622 1.422-1.422s-0.622-1.422-1.422-1.422h-2.578v-7.467c4.889-0.711 8.622-4.889 8.622-9.956v-5.511c0-0.8-0.622-1.422-1.422-1.422z" fill="#000000"></path>
</svg>
