<?xml version="1.0" encoding="utf-8"?>
<!-- Generated by IcoMoon.io -->
<!DOCTYPE svg PUBLIC "-//W3C//DTD SVG 1.1//EN" "http://www.w3.org/Graphics/SVG/1.1/DTD/svg11.dtd">
<svg version="1.1" xmlns="http://www.w3.org/2000/svg" xmlns:xlink="http://www.w3.org/1999/xlink" width="32" height="32" viewBox="0 0 32 32">
<g>
	<line stroke-width="1" x1="" y1="" x2="" y2="" stroke="#449FDB" opacity=""></line>
</g>
	<path d="M25.9 20.4h-5.5c0.3-3 1.7-5.7 4-7.6 0.5-0.4 0.5-1 0.1-1.5-0.4-0.4-1-0.5-1.5-0.1-2.8 2.3-4.5 5.6-4.8 9.2h-4.7c-0.3-3.6-2-6.9-4.8-9.2-0.5-0.4-1.1-0.3-1.5 0.2-0.4 0.4-0.3 1.1 0.1 1.5 2.3 1.9 3.8 4.6 4 7.6h-5.2c-0.6 0-1 0.5-1 1 0 0.6 0.5 1.1 1 1.1h5.5c-0.3 3-1.7 5.7-4 7.6-0.4 0.4-0.5 1-0.1 1.5 0.1 0.2 0.4 0.3 0.7 0.3 0.2 0 0.5-0.1 0.7-0.2 2.8-2.3 4.5-5.6 4.8-9.2h4.7c0.3 3.6 2 6.9 4.8 9.2 0.2 0.2 0.4 0.2 0.7 0.2s0.6-0.1 0.8-0.4c0.4-0.5 0.3-1.1-0.1-1.5-2.3-1.9-3.8-4.6-4-7.6h5.5c0.6 0 1.1-0.5 1.1-1.1s-0.7-1-1.3-1z" fill="#000000"></path>
</svg>
