<?xml version="1.0" encoding="utf-8"?>
<!-- Generated by IcoMoon.io -->
<!DOCTYPE svg PUBLIC "-//W3C//DTD SVG 1.1//EN" "http://www.w3.org/Graphics/SVG/1.1/DTD/svg11.dtd">
<svg version="1.1" xmlns="http://www.w3.org/2000/svg" xmlns:xlink="http://www.w3.org/1999/xlink" width="32" height="32" viewBox="0 0 32 32">
<g>
	<line stroke-width="1" x1="" y1="" x2="" y2="" stroke="#449FDB" opacity=""></line>
</g>
	<path d="M25.2 11.4h-5.5c-0.6 0-1 0.5-1 1s0.5 1 1 1h3l-7.2 7.2-2.3-2.3c-0.4-0.4-1.1-0.4-1.5 0s-0.4 1.1 0 1.5l2.3 2.3-8 8c-0.4 0.4-0.4 1.1 0 1.5 0.2 0.3 0.5 0.4 0.8 0.4s0.5-0.1 0.7-0.3l8-8 2.1 2.1c0.2 0.2 0.5 0.3 0.7 0.3 0.3 0 0.5-0.1 0.7-0.3 0.4-0.4 0.4-1.1 0-1.5l-2-2.1 7.2-7.2v3c0 0.6 0.5 1 1 1 0.6 0 1.1-0.5 1.1-1v-5.6c0-0.5-0.5-1-1.1-1z" fill="#000000"></path>
</svg>
