<?xml version="1.0" encoding="utf-8"?>
<!-- Generated by IcoMoon.io -->
<!DOCTYPE svg PUBLIC "-//W3C//DTD SVG 1.1//EN" "http://www.w3.org/Graphics/SVG/1.1/DTD/svg11.dtd">
<svg version="1.1" xmlns="http://www.w3.org/2000/svg" xmlns:xlink="http://www.w3.org/1999/xlink" width="32" height="32" viewBox="0 0 32 32">
<g>
	<line stroke-width="1" x1="" y1="" x2="" y2="" stroke="#449FDB" opacity=""></line>
</g>
	<path d="M16.178 15.022c-1.244 0-2.4 0.267-3.467 0.622v-7.911h2.578c0.8 0 1.422-0.622 1.422-1.422s-0.622-1.422-1.422-1.422h-2.578v-3.556c0-0.8-0.622-1.422-1.422-1.422s-1.422 0.622-1.422 1.422v3.556h-2.578c-0.8 0-1.422 0.622-1.422 1.422s0.622 1.422 1.422 1.422h2.578v22.844c0 0.8 0.622 1.422 1.422 1.422s1.422-0.622 1.422-1.422v-11.822c1.067-0.622 2.222-0.889 3.467-0.889 4 0 7.2 3.2 7.2 7.2v5.6c0 0.8 0.622 1.422 1.422 1.422s1.422-0.622 1.422-1.422v-5.6c-0.089-5.6-4.533-10.044-10.044-10.044z" fill="#000000"></path>
</svg>
