<?xml version="1.0" encoding="utf-8"?>
<!-- Generated by IcoMoon.io -->
<!DOCTYPE svg PUBLIC "-//W3C//DTD SVG 1.1//EN" "http://www.w3.org/Graphics/SVG/1.1/DTD/svg11.dtd">
<svg version="1.1" xmlns="http://www.w3.org/2000/svg" xmlns:xlink="http://www.w3.org/1999/xlink" width="32" height="32" viewBox="0 0 32 32">
<g>
	<line stroke-width="1" x1="" y1="" x2="" y2="" stroke="#449FDB" opacity=""></line>
</g>
	<path d="M31.7 26.5l-3.7-3.7c-0.4-0.4-1-0.4-1.4 0s-0.4 1 0 1.4l1.9 1.9h-2.3c-1.4 0-2.6-1.2-2.6-2.6v-12.7c0-0.1 0-0.1 0-0.2s0-0.1 0-0.2c0-2.5-2.1-4.6-4.6-4.6-1.5 0-2.7 0.7-3.6 1.7-0.8-1.1-2.1-1.7-3.6-1.7s-2.8 0.7-3.6 1.7c-0.9-0.9-2.2-1.6-3.6-1.6-2.5 0-4.6 2-4.6 4.6 0 0.5 0.4 1 1 1s1-0.4 1-1c0-1.5 1.2-2.6 2.6-2.6s2.6 1.1 2.6 2.6c0 0.1 0 0.1 0 0.2s0 0.1 0 0.2v13.5c0 0.5 0.4 1 1 1s1-0.4 1-1v-13.6c0-0.1 0-0.1 0-0.2s0-0.1 0-0.2c0-1.4 1.2-2.6 2.6-2.6s2.6 1.2 2.6 2.6c0 0.1 0 0.1 0 0.2s0 0.1 0 0.2v13.5c0 0.5 0.4 1 1 1 0.5 0 1-0.4 1-1v-13.5c0-0.1 0-0.1 0-0.2s0-0.1 0-0.2c0-1.4 1.2-2.6 2.6-2.6s2.6 1.2 2.6 2.6c0 0.1 0 0.1 0 0.2s0 0.1 0 0.2v12.7c0 2.5 2.1 4.6 4.6 4.6h2.5l-2.2 2.2c-0.4 0.4-0.4 1 0 1.4 0.2 0.2 0.5 0.3 0.7 0.3s0.5-0.1 0.7-0.3l3.8-3.8c0.4-0.3 0.4-1 0-1.4z" fill="#000000"></path>
</svg>
