<?xml version="1.0" encoding="utf-8"?>
<!-- Generated by IcoMoon.io -->
<!DOCTYPE svg PUBLIC "-//W3C//DTD SVG 1.1//EN" "http://www.w3.org/Graphics/SVG/1.1/DTD/svg11.dtd">
<svg version="1.1" xmlns="http://www.w3.org/2000/svg" xmlns:xlink="http://www.w3.org/1999/xlink" width="32" height="32" viewBox="0 0 32 32">
<g>
	<line stroke-width="1" x1="" y1="" x2="" y2="" stroke="#449FDB" opacity=""></line>
</g>
	<path d="M16 0c-8.8 0-16 7.2-16 16s7.2 16 16 16c8.8 0 16-7.2 16-16s-7.2-16-16-16zM16 28.8c-7.022 0-12.8-5.689-12.8-12.8s5.778-12.8 12.8-12.8c7.022 0 12.8 5.689 12.8 12.8s-5.778 12.8-12.8 12.8z" fill="#000000"></path>
	<path d="M19.289 16c0 1.816-1.473 3.289-3.289 3.289s-3.289-1.473-3.289-3.289c0-1.816 1.473-3.289 3.289-3.289s3.289 1.473 3.289 3.289z" fill="#000000"></path>
</svg>
