<?xml version="1.0" encoding="utf-8"?>
<!-- Generated by IcoMoon.io -->
<!DOCTYPE svg PUBLIC "-//W3C//DTD SVG 1.1//EN" "http://www.w3.org/Graphics/SVG/1.1/DTD/svg11.dtd">
<svg version="1.1" xmlns="http://www.w3.org/2000/svg" xmlns:xlink="http://www.w3.org/1999/xlink" width="32" height="32" viewBox="0 0 32 32">
<g>
	<line stroke-width="1" x1="" y1="" x2="" y2="" stroke="#449FDB" opacity=""></line>
</g>
	<path d="M20.6 12.1c2-1 3.7-2.6 4.8-4.6 0.3-0.5 0.1-1.1-0.5-1.4-0.5-0.3-1.1-0.1-1.4 0.5-1.4 2.8-4.3 4.5-7.4 4.5s-6-1.7-7.4-4.5c-0.4-0.5-1-0.7-1.5-0.5-0.6 0.3-0.7 0.9-0.5 1.4 1.1 2 2.7 3.6 4.7 4.6-3.5 1.7-5.9 5.3-5.9 9.4 0 5.8 4.7 10.5 10.5 10.5s10.5-4.7 10.5-10.5c0-4.1-2.5-7.7-5.9-9.4zM16 29.9c-4.6 0-8.4-3.8-8.4-8.4s3.8-8.4 8.4-8.4c4.6 0 8.4 3.8 8.4 8.4 0 4.7-3.8 8.4-8.4 8.4z" fill="#000000"></path>
</svg>
