<?xml version="1.0" encoding="utf-8"?>
<!-- Generated by IcoMoon.io -->
<!DOCTYPE svg PUBLIC "-//W3C//DTD SVG 1.1//EN" "http://www.w3.org/Graphics/SVG/1.1/DTD/svg11.dtd">
<svg version="1.1" xmlns="http://www.w3.org/2000/svg" xmlns:xlink="http://www.w3.org/1999/xlink" width="32" height="32" viewBox="0 0 32 32">
<g>
	<line stroke-width="1" x1="" y1="" x2="" y2="" stroke="#449FDB" opacity=""></line>
</g>
	<path d="M29.244 18.4c-2.222-1.778-3.556-4.711-3.556-7.822 0-3.2 1.333-6.133 3.556-7.822 0.622-0.444 0.711-1.333 0.267-1.956s-1.333-0.711-1.956-0.267c-2.578 2.044-4.267 5.244-4.533 8.711h-5.689v-7.822c0-0.8-0.622-1.422-1.422-1.422s-1.422 0.622-1.422 1.422v7.733h-5.244c-0.267-3.556-1.956-6.844-4.622-8.889-0.711-0.444-1.6-0.356-2.044 0.267-0.533 0.622-0.444 1.511 0.178 2.044 2.222 1.778 3.556 4.711 3.556 7.822 0 3.2-1.333 6.133-3.556 7.822-0.622 0.444-0.711 1.422-0.267 1.956 0.267 0.356 0.711 0.533 1.156 0.533 0.267 0 0.622-0.089 0.889-0.267 2.489-1.956 4.178-5.067 4.533-8.444h5.244v9.6c-2.222 0.622-3.822 2.667-3.822 5.067 0 2.933 2.4 5.244 5.244 5.244 2.933 0 5.244-2.4 5.244-5.244 0-2.4-1.6-4.444-3.822-5.067v-9.6h5.689c0.356 3.467 2.044 6.578 4.622 8.622 0.267 0.178 0.533 0.267 0.889 0.267 0.444 0 0.8-0.178 1.156-0.533 0.444-0.533 0.267-1.422-0.267-1.956zM18.222 26.756c0 1.333-1.067 2.4-2.4 2.4s-2.4-1.067-2.4-2.4c0-1.333 1.067-2.4 2.4-2.4s2.4 1.067 2.4 2.4z" fill="#000000"></path>
</svg>
