<?xml version="1.0" encoding="utf-8"?>
<!-- Generated by IcoMoon.io -->
<!DOCTYPE svg PUBLIC "-//W3C//DTD SVG 1.1//EN" "http://www.w3.org/Graphics/SVG/1.1/DTD/svg11.dtd">
<svg version="1.1" xmlns="http://www.w3.org/2000/svg" xmlns:xlink="http://www.w3.org/1999/xlink" width="32" height="32" viewBox="0 0 32 32">
<g>
	<line stroke-width="1" x1="" y1="" x2="" y2="" stroke="#449FDB" opacity=""></line>
</g>
	<path d="M24.711 12.889c0-4.8-3.911-8.711-8.711-8.711s-8.711 3.911-8.711 8.711c0 4.356 3.289 8 7.467 8.622v3.733h-2.133c-0.711 0-1.244 0.533-1.244 1.244s0.533 1.244 1.244 1.244h2.133v3.111c0 0.711 0.533 1.244 1.244 1.244s1.244-0.533 1.244-1.244v-3.111h2.4c0.711 0 1.244-0.533 1.244-1.244s-0.533-1.244-1.244-1.244h-2.4v-3.733c4.178-0.622 7.467-4.267 7.467-8.622zM9.689 12.889c0-3.467 2.844-6.311 6.311-6.311s6.311 2.844 6.311 6.311c0 3.467-2.844 6.311-6.311 6.311s-6.311-2.844-6.311-6.311z" fill="#000000"></path>
</svg>
