<?xml version="1.0" encoding="utf-8"?>
<!-- Generated by IcoMoon.io -->
<!DOCTYPE svg PUBLIC "-//W3C//DTD SVG 1.1//EN" "http://www.w3.org/Graphics/SVG/1.1/DTD/svg11.dtd">
<svg version="1.1" xmlns="http://www.w3.org/2000/svg" xmlns:xlink="http://www.w3.org/1999/xlink" width="32" height="32" viewBox="0 0 32 32">
<g>
	<line stroke-width="1" x1="" y1="" x2="" y2="" stroke="#449FDB" opacity=""></line>
</g>
	<path d="M31.9 16c-0.4-2.5-1.7-4.1-3.7-4.6-1.3-0.3-2.6 0-3.8 0.8v-0.3c0-0.1 0-0.1 0-0.2s0-0.1 0-0.2c0-2.6-2.1-4.8-4.8-4.8-1.5 0-2.9 0.7-3.7 1.8-0.9-1.1-2.2-1.8-3.7-1.8s-2.8 0.8-3.7 1.9c-0.9-1.1-2.2-1.8-3.7-1.8-2.7 0-4.8 2.1-4.8 4.7 0 0.6 0.5 1 1 1 0.6 0 1-0.5 1-1 0-1.5 1.2-2.7 2.7-2.7s2.7 1.2 2.7 2.7c0 0.1 0 0.1 0 0.2s0 0.1 0 0.2v14c0 0.6 0.5 1 1 1 0.6 0 1-0.5 1-1v-14c0-0.1 0-0.1 0-0.2s0-0.1 0-0.2c0-1.5 1.2-2.7 2.7-2.7s2.7 1.2 2.7 2.7c0 0.1 0 0.1 0 0.2s0 0.1 0 0.2v14c0 0.6 0.5 1 1 1 0.6 0 1-0.5 1-1v-14c0-0.1 0-0.1 0-0.2s0-0.1 0-0.2c0-1.5 1.2-2.7 2.7-2.7s2.7 1.2 2.7 2.7c0 0.1 0 0.1 0 0.2s0 0.1 0 0.2v15.7c-1.5 1.2-2.8 2.1-3.5 2.5-0.5 0.3-0.6 0.9-0.3 1.4 0.2 0.3 0.5 0.5 0.9 0.5 0.2 0 0.4 0 0.5-0.1 1.3-0.8 4.4-2.9 7-5.6 4-3.8 5.6-7.3 5.1-10.3zM24.5 25.8v-10.7c0 0 0.1-0.1 0.1-0.1 0.8-1.2 2.1-1.8 3.2-1.5 1.1 0.2 1.8 1.3 2.1 2.9 0.5 3-2.4 6.6-5.4 9.4z" fill="#000000"></path>
</svg>
