<?xml version="1.0" encoding="utf-8"?>
<!-- Generator: Adobe Illustrator 17.1.0, SVG Export Plug-In . SVG Version: 6.00 Build 0)  -->
<!DOCTYPE svg PUBLIC "-//W3C//DTD SVG 1.1//EN" "http://www.w3.org/Graphics/SVG/1.1/DTD/svg11.dtd">
<svg version="1.1" id="Layer_1" xmlns="http://www.w3.org/2000/svg" xmlns:xlink="http://www.w3.org/1999/xlink" x="0px" y="0px"
	 viewBox="0 0 640 180" enable-background="new 0 0 640 180" xml:space="preserve">
<g>
	<path d="M556.149,19.96c12.332-0.278,24.299,1.76,35.109,7.703c6.206,3.413,11.566,8.364,17.311,12.617
		c11.747,8.696,18.368,20.963,23.11,34.276c4.467,12.539,4.74,25.547,1.811,38.496c-0.968,4.281-3.03,8.306-4.436,12.501
		c-0.586,1.747-0.751,3.633-1.141,5.449c-0.071,0.33-0.267,0.652-0.467,0.934c-4.589,6.449-8.377,13.718-13.945,19.17
		c-13.193,12.918-28.978,21.28-47.713,23.405c-16.181,1.835-31.308-1.495-45.295-9.43c-20.734-11.764-35.335-28.86-40.395-52.442
		c-3.84-17.895-1.522-35.413,8.211-51.516c6.585-10.896,13.803-21.303,24.811-28.08C529.555,22.924,536.078,20.291,556.149,19.96z"
		/>
	<path d="M276.209,52.807c0,7.745-0.018,15.491,0.003,23.236c0.054,19.889,0.081,39.778,0.239,59.666
		c0.023,2.909,0.147,6.027,1.18,8.676c2.755,7.064,8.709,9.019,15.754,8.778c1.526-0.052,3.509-0.736,3.789,1.888
		c0.222,2.084-0.335,3.541-2.746,3.546c-12.315,0.028-24.631,0.096-36.945-0.031c-0.939-0.01-2.343-1.256-2.689-2.227
		c-0.613-1.724,0.392-2.692,2.33-3.034c11.039-1.948,14.924-6.229,15.122-17.726c0.276-15.974,0.145-31.956,0.112-47.935
		c-0.024-11.365-0.269-22.731-0.238-34.096c0.027-10.224-4.567-15.699-14.511-15.336c-0.68,0.025-1.373-0.273-2.045-0.418
		c-0.994-3.225,0.171-4.297,3.409-4.288c20.139,0.054,40.278-0.037,60.416-0.067c5.441-0.008,10.884,0.125,16.322-0.003
		c2.166-0.051,3.033,0.807,3.78,2.761c8.05,21.054,16.208,42.066,24.351,63.084c0.073,0.188,0.347,0.298,0.572,0.482
		c3.438-8.782,6.969-17.502,10.271-26.307c4.6-12.265,9.08-24.576,13.484-36.912c0.761-2.133,1.768-2.899,4.078-2.879
		c18.577,0.167,37.155,0.191,55.733,0.266c7.098,0.029,14.196,0.046,21.294,0.131c4.179,0.05,4.462,0.528,3.283,5.269
		c-4.763,0-9.605,0.11-14.439-0.049c-2.231-0.073-2.875,0.775-2.897,2.853c-0.169,16.093-0.47,32.185-0.595,48.279
		c-0.093,11.946-0.039,23.894,0.051,35.841c0.064,8.513,0.364,17.025,0.407,25.538c0.011,2.254,0.934,2.82,2.971,2.843
		c4.368,0.05,8.74,0.208,13.096,0.519c0.704,0.05,1.336,1.113,2.001,1.708c-0.655,0.692-1.215,1.812-1.986,1.983
		c-1.342,0.297-2.813-0.025-4.23-0.028c-30.182-0.07-60.364-0.131-90.546-0.193c-1.422-0.003-2.932,0.302-4.235-0.089
		c-0.92-0.276-2.116-1.462-2.156-2.292c-0.035-0.733,1.326-2.164,2.125-2.204c5.202-0.262,10.418-0.247,15.63-0.284
		c2.314-0.017,3.619-0.593,3.593-3.433c-0.261-27.707-0.408-55.416-0.535-83.125c-0.034-7.279,0.117-14.559,0.161-21.838
		c0.003-0.549-0.178-1.099-1.032-1.822c-1.778,4.977-3.496,9.976-5.343,14.927c-9.982,26.756-20.003,53.497-29.993,80.25
		c-2.145,5.744-4.111,11.558-6.415,17.237c-0.435,1.072-2.066,2.323-3.172,2.349c-7.322,0.173-14.655,0.131-21.975-0.109
		c-1.105-0.036-2.725-1.232-3.164-2.284c-8.529-20.481-16.941-41.01-25.325-61.55c-5.215-12.778-10.334-25.596-15.524-38.384
		c-0.465-1.145-1.143-2.204-1.723-3.303C276.942,52.718,276.575,52.763,276.209,52.807z"/>
	<path d="M190.758,6.747c5.568,0.004,11.138,0.093,16.703-0.035c2.668-0.061,4.062,0.826,4.731,3.557
		c2.439,9.961,5.126,19.861,7.658,29.8c6.669,26.186,13.324,52.377,19.949,78.574c3.329,13.163,6.514,26.363,9.917,39.506
		c0.748,2.889,0.12,3.877-2.895,3.835c-11.586-0.161-23.176-0.256-34.762-0.179c-2.344,0.015-3.085-0.996-3.564-2.933
		c-1.56-6.308-3.252-12.584-4.77-18.902c-0.478-1.989-1.449-2.627-3.476-2.57c-9.815,0.275-19.634,0.508-29.452,0.534
		c-2.858,0.007-2.885,2.061-3.358,3.723c-1.584,5.566-3.066,11.163-4.442,16.784c-0.662,2.704-1.862,3.745-4.906,3.641
		c-8.035-0.275-16.087-0.021-24.133-0.026c-3.815-0.002-4.43-0.754-3.506-4.354c5.184-20.207,10.401-40.405,15.606-60.606
		c5.448-21.141,10.858-42.292,16.361-63.419c2.051-7.874,4.391-15.674,6.452-23.546c0.701-2.677,2.12-3.536,4.832-3.445
		C179.381,6.875,185.072,6.743,190.758,6.747z M186.633,74.639c-0.398,0.101-0.795,0.203-1.193,0.304
		c-1.357,4.598-2.786,9.176-4.055,13.798c-1.707,6.217-3.42,12.438-4.885,18.715c-1.02,4.372-0.159,5.227,4.296,5.293
		c1.887,0.028,3.775,0.222,5.658,0.177c3.299-0.077,6.596-0.28,9.877-0.43C192.955,99.321,189.794,86.98,186.633,74.639z"/>
	<path d="M19.006,29.513c-4.856,0-8.94,0-13.188,0c-0.151-3.398-0.417-6.338-0.298-9.262c0.024-0.587,1.513-1.597,2.328-1.598
		c20.718-0.032,41.437,0.058,62.155,0.1c16.576,0.034,33.153,0.022,49.729,0.065c1.743,0.005,3.485,0.247,5.605,0.408
		c0,15.088,0,29.824,0,44.83c-3.609,0-7.101,0-10.706,0c-0.729-3.802-1.039-7.842-2.303-11.559
		c-4.098-12.058-13.316-22.478-26.655-22.234c-6.035,0.111-12.076-0.115-18.115-0.182c-1.28-0.014-2.559-0.002-3.71-0.002
		c0,19.275,0,38.252,0,57.008c6.755,0,13.002,0.404,19.167-0.133c4.578-0.399,7.348-4.2,7.942-9.164
		c0.208-1.74,0.228-3.502,0.358-5.651c3.105,0,6.127-0.139,9.12,0.1c0.729,0.058,1.935,1.342,1.95,2.082
		c0.256,12.666,0.399,25.335,0.396,38.003c0,0.761-1.38,2.101-2.209,2.178c-2.912,0.27-5.864,0.105-9.303,0.105
		c0-1.968,0.06-3.576-0.011-5.177c-0.262-5.908-3.687-9.564-9.547-9.766c-5.765-0.199-11.542-0.043-17.329-0.043
		c0,20.654,0,41.049,0,61.77c4.333,0,8.416,0,13.015,0c0,3.33-0.048,6.359,0.015,9.386c0.05,2.385-1.549,2.225-3.138,2.218
		c-11.489-0.051-22.978-0.077-34.466-0.141c-9.704-0.054-19.408-0.242-29.111-0.169c-3.08,0.023-4.352-0.973-4.081-4.11
		c0.201-2.337,0.04-4.705,0.04-7.461c4.425,0,8.715,0,12.352,0C19.006,117.131,19.006,73.557,19.006,29.513z"/>
</g>
</svg>
